<?xml version="1.0" encoding="utf-8"?>
<!-- Generator: Adobe Illustrator 16.0.0, SVG Export Plug-In . SVG Version: 6.00 Build 0)  -->
<!DOCTYPE svg PUBLIC "-//W3C//DTD SVG 1.1//EN" "http://www.w3.org/Graphics/SVG/1.1/DTD/svg11.dtd">
<svg version="1.1" id="Layer_1" xmlns="http://www.w3.org/2000/svg" xmlns:xlink="http://www.w3.org/1999/xlink" x="0px" y="0px"
	 width="40px" height="78px" viewBox="0 0 40 78" enable-background="new 0 0 40 78" xml:space="preserve">
<path opacity="0.2" enable-background="new    " d="M40,4.91v68.084C40,76.189,38.243,78,35.046,78L0,77.987V0h35.023
	C38.221,0,40,1.716,40,4.91z"/>
<g>
	<path fill="#FFFFFF" d="M24.5,54c-0.125,0-0.25-0.047-0.348-0.141l-15-14.5C9.055,39.266,9,39.136,9,39s0.055-0.266,0.152-0.359
		l15-14.5c0.201-0.191,0.517-0.187,0.707,0.012c0.192,0.198,0.187,0.516-0.012,0.707L10.22,39l14.628,14.141
		c0.198,0.191,0.204,0.509,0.012,0.707C24.762,53.949,24.631,54,24.5,54z"/>
</g>
</svg>
