<?xml version="1.0" encoding="utf-8"?>
<!-- Generator: Adobe Illustrator 16.0.0, SVG Export Plug-In . SVG Version: 6.00 Build 0)  -->
<!DOCTYPE svg PUBLIC "-//W3C//DTD SVG 1.1//EN" "http://www.w3.org/Graphics/SVG/1.1/DTD/svg11.dtd">
<svg version="1.1" id="Layer_1" xmlns="http://www.w3.org/2000/svg" xmlns:xlink="http://www.w3.org/1999/xlink" x="0px" y="0px"
	 width="40px" height="78px" viewBox="0 0 40 78" enable-background="new 0 0 40 78" xml:space="preserve">
<path opacity="0.2" enable-background="new    " d="M4.977,0H40v77.987L4.953,78C1.757,78,0,76.189,0,72.994V4.91
	C0,1.716,1.779,0,4.977,0z"/>
<g>
	<path fill="#FFFFFF" d="M15.5,54c0.125,0,0.25-0.047,0.348-0.141l15-14.5C30.945,39.266,31,39.136,31,39s-0.055-0.266-0.152-0.359
		l-15-14.5c-0.201-0.191-0.517-0.187-0.707,0.012c-0.192,0.198-0.187,0.516,0.012,0.707L29.78,39L15.152,53.141
		c-0.198,0.191-0.204,0.509-0.012,0.707C15.238,53.949,15.369,54,15.5,54z"/>
</g>
</svg>
