<?xml version="1.0" encoding="utf-8"?>
<!-- Generator: Adobe Illustrator 16.0.0, SVG Export Plug-In . SVG Version: 6.00 Build 0)  -->
<!DOCTYPE svg PUBLIC "-//W3C//DTD SVG 1.1//EN" "http://www.w3.org/Graphics/SVG/1.1/DTD/svg11.dtd">
<svg version="1.1" id="Layer_1" xmlns="http://www.w3.org/2000/svg" xmlns:xlink="http://www.w3.org/1999/xlink" x="0px" y="0px"
	 width="1200px" height="1200px" viewBox="0 0 1200 1200" enable-background="new 0 0 1200 1200" xml:space="preserve">
<g>
	<g>
		<path fill="#242424" d="M599.996,0C268.615,0,0,268.63,0,600c0,331.362,268.63,600,599.996,600C931.37,1200,1200,931.362,1200,600
			C1200,268.63,931.37,0,599.996,0z M294.706,719.69H191.031v-18.116l28.938-5.798V501.317l-28.79-3.293V476.93h101.931v21.095
			l-27.686,3.442v194.152l29.257,5.955v18.116H294.706z M558.118,500.38l-23.587,3.276V719.69h-48.909l-93.602-151.616l-18.891-43.3
			v170.372l31.294,6.428v18.116h-87.295v-18.116l25.625-6.113V503.822l-24.528-3.136V476.93h69.542l99.257,166.954l17.614,40.77
			V504.145l-27.375-3.75v-23.45h80.857V500.38z M779.035,533.825l-18.26,2.033l-10.357-32.816l-48.14-3.758v196.492l37.749,5.798
			v18.116H620.17v-18.116l37.298-5.64v-196.65l-49.243,3.758l-10.857,30.634l-22.352,0.938l3.78-57.668h200.566L779.035,533.825z
			 M1022.096,719.69h-58.841c-15.414,0-47.346-91.749-71.267-112.388l-21.559,24.072v64.401l30.518,5.798v18.116H797.281v-18.116
			l28.292-5.798v-194.31l-28.292-3.442V476.93h100.213v21.095l-27.064,3.616v96.745l79.915-97.068l-24.854-3.293
			c0-7.034-0.155-14.061-0.312-21.095h89.186v21.095l-27.687,3.616l-70.629,78.77c25.462,24.238,68.732,109.727,83.522,115.351
			l22.508,5.782v18.147H1022.096z"/>
	</g>
</g>
</svg>
